<svg xmlns="http://www.w3.org/2000/svg" xmlns:xlink="http://www.w3.org/1999/xlink" preserveAspectRatio="xMidYMid meet" version="1.0" viewBox="598.0 464.4 1256.4 1523.7" zoomAndPan="magnify" style="fill: rgb(0, 0, 0);" original_string_length="5716"><g id="__id184_sf78cko5gh" style="fill: rgb(255, 255, 255);"><path d="M 898.15625 1204.578125 C 898.15625 1209.550781 894.113281 1213.609375 889.144531 1213.609375 L 810.6875 1213.609375 C 805.714844 1213.609375 801.671875 1209.550781 801.671875 1204.578125 L 801.671875 1126.160156 C 801.671875 1121.179688 805.714844 1117.128906 810.6875 1117.128906 L 889.144531 1117.128906 C 894.113281 1117.128906 898.15625 1121.179688 898.15625 1126.160156 Z M 889.144531 1084.171875 L 810.6875 1084.171875 C 787.539062 1084.171875 768.714844 1103 768.714844 1126.160156 L 768.714844 1204.578125 C 768.714844 1227.730469 787.539062 1246.558594 810.6875 1246.558594 L 889.144531 1246.558594 C 912.289062 1246.558594 931.113281 1227.730469 931.113281 1204.578125 L 931.113281 1126.160156 C 931.113281 1103 912.289062 1084.171875 889.144531 1084.171875" style="fill: inherit;"/><path d="M 1009.199219 1148.890625 C 1000.109375 1148.890625 992.730469 1156.269531 992.730469 1165.359375 C 992.730469 1174.460938 1000.109375 1181.839844 1009.199219 1181.839844 L 1554.308594 1181.839844 C 1563.421875 1181.839844 1570.789062 1174.460938 1570.789062 1165.359375 C 1570.789062 1156.269531 1563.421875 1148.890625 1554.308594 1148.890625 L 1009.199219 1148.890625" style="fill: inherit;"/><path d="M 898.15625 1453.5 C 898.15625 1458.46875 894.113281 1462.53125 889.144531 1462.53125 L 810.6875 1462.53125 C 805.714844 1462.53125 801.671875 1458.46875 801.671875 1453.5 L 801.671875 1375.070312 C 801.671875 1370.089844 805.714844 1366.039062 810.6875 1366.039062 L 889.144531 1366.039062 C 894.113281 1366.039062 898.15625 1370.089844 898.15625 1375.070312 Z M 889.144531 1333.078125 L 810.6875 1333.078125 C 787.539062 1333.078125 768.714844 1351.910156 768.714844 1375.070312 L 768.714844 1453.5 C 768.714844 1476.648438 787.539062 1495.480469 810.6875 1495.480469 L 889.144531 1495.480469 C 912.289062 1495.480469 931.113281 1476.648438 931.113281 1453.5 L 931.113281 1375.070312 C 931.113281 1351.910156 912.289062 1333.078125 889.144531 1333.078125" style="fill: inherit;"/><path d="M 1554.308594 1397.800781 L 1009.199219 1397.800781 C 1000.109375 1397.800781 992.730469 1405.171875 992.730469 1414.269531 C 992.730469 1423.371094 1000.109375 1430.75 1009.199219 1430.75 L 1554.308594 1430.75 C 1563.421875 1430.75 1570.789062 1423.371094 1570.789062 1414.269531 C 1570.789062 1405.171875 1563.421875 1397.800781 1554.308594 1397.800781" style="fill: inherit;"/><path d="M 898.15625 1702.410156 C 898.15625 1707.390625 894.113281 1711.441406 889.144531 1711.441406 L 810.6875 1711.441406 C 805.714844 1711.441406 801.671875 1707.390625 801.671875 1702.410156 L 801.671875 1623.980469 C 801.671875 1619 805.714844 1614.941406 810.6875 1614.941406 L 889.144531 1614.941406 C 894.113281 1614.941406 898.15625 1619 898.15625 1623.980469 Z M 889.144531 1581.988281 L 810.6875 1581.988281 C 787.539062 1581.988281 768.714844 1600.820312 768.714844 1623.980469 L 768.714844 1702.410156 C 768.714844 1725.570312 787.539062 1744.398438 810.6875 1744.398438 L 889.144531 1744.398438 C 912.289062 1744.398438 931.113281 1725.570312 931.113281 1702.410156 L 931.113281 1623.980469 C 931.113281 1600.820312 912.289062 1581.988281 889.144531 1581.988281" style="fill: inherit;"/><path d="M 1554.308594 1646.699219 L 1009.199219 1646.699219 C 1000.109375 1646.699219 992.730469 1654.078125 992.730469 1663.179688 C 992.730469 1672.28125 1000.109375 1679.660156 1009.199219 1679.660156 L 1554.308594 1679.660156 C 1563.421875 1679.660156 1570.789062 1672.28125 1570.789062 1663.179688 C 1570.789062 1654.078125 1563.421875 1646.699219 1554.308594 1646.699219" style="fill: inherit;"/><path d="M 1589.734375 943.390625 C 1580.328125 957.390625 1565.410156 966.710938 1548.726562 969.027344 C 1546.019531 969.417969 1543.3125 969.589844 1540.589844 969.589844 C 1526.648438 969.589844 1513.050781 964.671875 1502.292969 955.539062 L 1348.339844 824.808594 C 1323.421875 803.660156 1320.386719 766.324219 1341.511719 741.417969 C 1362.683594 716.550781 1399.996094 713.453125 1424.914062 734.613281 L 1528.371094 822.457031 L 1666.855469 616.035156 C 1685.039062 588.894531 1721.789062 581.652344 1748.941406 599.859375 C 1776.066406 618.058594 1783.3125 654.808594 1765.113281 681.933594 Z M 1675.5625 1814.886719 C 1675.5625 1874.058594 1627.433594 1922.179688 1568.289062 1922.179688 L 771.269531 1922.179688 C 712.101562 1922.179688 663.964844 1874.058594 663.964844 1814.886719 L 663.964844 1023.632812 L 677.617188 1009.972656 L 833.359375 1009.972656 C 910.835938 1009.972656 973.628906 947.183594 973.628906 869.707031 L 973.628906 713.964844 L 987.28125 700.316406 L 1261.230469 700.316406 C 1256.707031 721.015625 1254.167969 742.46875 1254.167969 764.53125 C 1254.167969 930.328125 1388.554688 1064.6875 1554.3125 1064.6875 C 1597.503906 1064.6875 1638.460938 1055.40625 1675.5625 1038.988281 Z M 1854.46875 764.53125 C 1854.46875 598.777344 1720.117188 464.390625 1554.3125 464.390625 C 1435.257812 464.390625 1332.667969 533.898438 1284.171875 634.390625 L 973.628906 634.390625 C 964.882812 634.390625 956.503906 637.867188 950.328125 644.050781 L 607.699219 986.675781 C 601.515625 992.847656 598.039062 1001.238281 598.039062 1009.972656 L 598.039062 1814.886719 C 598.039062 1910.398438 675.75 1988.097656 771.269531 1988.097656 L 1568.289062 1988.097656 C 1663.78125 1988.097656 1741.464844 1910.398438 1741.464844 1814.886719 L 1741.464844 998.984375 C 1810.277344 943.988281 1854.46875 859.488281 1854.46875 764.53125" style="fill: inherit;"/></g></svg>