<svg xmlns="http://www.w3.org/2000/svg" version="1.1" width="297px" height="332px" style="shape-rendering:geometricPrecision; text-rendering:geometricPrecision; image-rendering:optimizeQuality; fill-rule:evenodd; clip-rule:evenodd" xmlns:xlink="http://www.w3.org/1999/xlink">
<g><path style="opacity:1" fill="#fefefe" d="M -0.5,-0.5 C 98.5,-0.5 197.5,-0.5 296.5,-0.5C 296.5,110.167 296.5,220.833 296.5,331.5C 197.5,331.5 98.5,331.5 -0.5,331.5C -0.5,220.833 -0.5,110.167 -0.5,-0.5 Z"/></g>
<g><path style="opacity:1" fill="#fecd0b" d="M 251.5,189.5 C 254.287,190.477 257.287,190.81 260.5,190.5C 260.194,193.385 260.527,196.052 261.5,198.5C 264.344,199.616 267.344,200.616 270.5,201.5C 266.709,208.74 269.042,212.074 277.5,211.5C 276.066,214.698 275.566,218.032 276,221.5C 278.25,222.708 280.417,224.041 282.5,225.5C 281.167,227.833 279.833,230.167 278.5,232.5C 280.339,234.838 282.339,237.004 284.5,239C 283.039,241.298 281.372,243.465 279.5,245.5C 281.589,247.58 283.256,249.913 284.5,252.5C 282.643,254.855 280.643,257.021 278.5,259C 279.833,261.333 281.167,263.667 282.5,266C 280.625,267.86 278.458,269.36 276,270.5C 276.155,273.84 276.655,277.174 277.5,280.5C 275.08,280.292 272.747,280.626 270.5,281.5C 269.414,285.155 269.414,288.822 270.5,292.5C 267.5,292.5 264.5,292.5 261.5,292.5C 261.5,295.5 261.5,298.5 261.5,301.5C 258.102,301.18 254.768,301.513 251.5,302.5C 250.607,305.084 250.274,307.751 250.5,310.5C 247.174,309.655 243.84,309.155 240.5,309C 239.198,311.213 238.198,313.546 237.5,316C 234.835,315.52 232.169,314.687 229.5,313.5C 227.283,315.566 225.283,317.9 223.5,320.5C 221.258,318.461 218.758,316.795 216,315.5C 213.978,317.522 211.978,319.522 210,321.5C 207.97,319.136 205.637,317.136 203,315.5C 200.702,316.961 198.535,318.628 196.5,320.5C 194.684,318.882 193.351,316.882 192.5,314.5C 191.667,314.167 190.833,313.833 190,313.5C 187.269,314.617 184.435,315.283 181.5,315.5C 180.784,308.122 177.117,306.455 170.5,310.5C 169.516,307.572 169.183,304.572 169.5,301.5C 166.091,301.249 162.758,301.583 159.5,302.5C 158.513,299.232 158.18,295.898 158.5,292.5C 156.052,291.527 153.385,291.194 150.5,291.5C 150.5,290.167 150.5,288.833 150.5,287.5C 150.849,281.98 148.183,279.646 142.5,280.5C 142.571,277.689 143.238,275.022 144.5,272.5C 142.863,270.251 140.696,268.585 138,267.5C 137.94,264.604 138.773,261.937 140.5,259.5C 139.223,256.89 137.557,254.556 135.5,252.5C 137.453,250.714 138.787,248.547 139.5,246C 138.612,243.438 137.279,241.104 135.5,239C 137.239,236.622 139.239,234.455 141.5,232.5C 140.349,230.191 139.016,228.024 137.5,226C 139.056,223.948 141.056,222.448 143.5,221.5C 143.833,220.667 144.167,219.833 144.5,219C 143.678,216.528 143.011,214.028 142.5,211.5C 145.118,211.221 147.618,210.554 150,209.5C 150.495,206.469 150.329,203.469 149.5,200.5C 152.482,200.037 155.482,199.704 158.5,199.5C 158.335,196.482 158.502,193.482 159,190.5C 162.057,189.549 165.223,189.216 168.5,189.5C 168.779,186.882 169.446,184.382 170.5,182C 173.404,182.565 176.404,183.065 179.5,183.5C 179.938,175.215 183.438,173.548 190,178.5C 192.153,176.227 194.32,173.894 196.5,171.5C 198.535,173.372 200.702,175.039 203,176.5C 205.333,174.5 207.667,172.5 210,170.5C 211.996,172.661 214.162,174.661 216.5,176.5C 219.009,175.079 221.343,173.412 223.5,171.5C 225.216,174.274 227.382,176.608 230,178.5C 232.216,176.634 234.716,175.8 237.5,176C 238.636,178.777 240.136,181.277 242,183.5C 248.859,179.517 252.025,181.517 251.5,189.5 Z"/></g>
<g><path style="opacity:1" fill="#fde994" d="M 251.5,189.5 C 254.833,189.5 258.167,189.5 261.5,189.5C 261.5,192.5 261.5,195.5 261.5,198.5C 260.527,196.052 260.194,193.385 260.5,190.5C 257.287,190.81 254.287,190.477 251.5,189.5 Z"/></g>
<g><path style="opacity:1" fill="#fbf8ed" d="M 180.5,232.5 C 181.833,232.5 183.167,232.5 184.5,232.5C 184.5,241.5 184.5,250.5 184.5,259.5C 183.167,259.5 181.833,259.5 180.5,259.5C 180.5,250.5 180.5,241.5 180.5,232.5 Z"/></g>
<g><path style="opacity:1" fill="#faf8e8" d="M 254.5,231.5 C 257.602,231.154 260.435,231.821 263,233.5C 263.667,234.833 263.667,236.167 263,237.5C 260.367,235.84 257.534,235.34 254.5,236C 253.065,238.267 253.398,240.267 255.5,242C 262.647,244.448 265.481,249.282 264,256.5C 263.167,257.333 262.333,258.167 261.5,259C 258.167,259.667 254.833,259.667 251.5,259C 249.485,257.445 249.152,255.611 250.5,253.5C 254.559,257.634 258.226,257.467 261.5,253C 261.265,252.127 260.931,251.293 260.5,250.5C 256.533,248.032 253.033,245.032 250,241.5C 248.571,236.783 250.071,233.45 254.5,231.5 Z"/></g>
<g><path style="opacity:1" fill="#fbf7e8" d="M 155.5,232.5 C 159.182,232.335 162.848,232.501 166.5,233C 171.145,235.025 172.645,238.525 171,243.5C 169.978,244.354 169.145,245.354 168.5,246.5C 171.167,250.5 173.833,254.5 176.5,258.5C 175.277,259.614 173.944,259.781 172.5,259C 170.5,256 168.5,253 166.5,250C 164.559,248.097 162.226,247.264 159.5,247.5C 159.5,251.5 159.5,255.5 159.5,259.5C 158.167,259.5 156.833,259.5 155.5,259.5C 155.5,250.5 155.5,241.5 155.5,232.5 Z"/></g>
<g><path style="opacity:1" fill="#fdd032" d="M 160.5,235.5 C 166.487,234.977 168.487,237.477 166.5,243C 164.376,244.582 162.21,244.749 160,243.5C 159.278,240.739 159.445,238.073 160.5,235.5 Z"/></g>
<g><path style="opacity:1" fill="#faf8ed" d="M 232.5,231.5 C 233.822,231.33 234.989,231.663 236,232.5C 240.091,241.019 243.924,249.685 247.5,258.5C 246.167,259.833 244.833,259.833 243.5,258.5C 242.399,256.358 241.399,254.192 240.5,252C 236.129,251.172 231.795,251.339 227.5,252.5C 227.559,256.748 225.559,259.081 221.5,259.5C 225.16,250.177 228.827,240.844 232.5,231.5 Z"/></g>
<g><path style="opacity:1" fill="#fcd23a" d="M 233.5,239.5 C 240.704,246.003 239.704,249.003 230.5,248.5C 230.647,245.208 231.647,242.208 233.5,239.5 Z"/></g>
<g><path style="opacity:1" fill="#faf8ea" d="M 199.5,231.5 C 213.391,230.555 219.557,236.888 218,250.5C 216.293,255.041 213.126,258.041 208.5,259.5C 211.22,261.111 214.22,261.944 217.5,262C 215.186,265.772 212.186,266.438 208.5,264C 203.233,261.239 198.067,258.406 193,255.5C 186.789,245.209 188.956,237.209 199.5,231.5 Z"/></g>
<g><path style="opacity:1" fill="#fece19" d="M 199.5,235.5 C 213.745,235.171 217.745,241.337 211.5,254C 204.523,258.235 198.689,257.069 194,250.5C 193.333,247.5 193.333,244.5 194,241.5C 195.36,238.977 197.193,236.977 199.5,235.5 Z"/></g>
<g><path style="opacity:1" fill="#fee277" d="M 150.5,287.5 C 150.5,288.833 150.5,290.167 150.5,291.5C 153.385,291.194 156.052,291.527 158.5,292.5C 155.5,292.5 152.5,292.5 149.5,292.5C 149.216,290.585 149.549,288.919 150.5,287.5 Z"/></g>
</svg>
