<svg xmlns="http://www.w3.org/2000/svg" enable-background="new 0 0 394.9 339.5" version="1.1" viewBox="0 0 394.9 339.5" x="0px" xml:space="preserve" y="0px" style="fill: rgb(0, 0, 0);" original_string_length="958">
<g id="__id142_sdyarvzd3"><path d="m365.6 29.3c-39.1-39.1-103-39.1-142 0l-26.1 26.1-26.1-26.1c-39.1-39.1-103-39.1-142 0-37.9 37.9-39 99.2-3.4 138.5h91.9l13.4-69.9c0.6-3.3 3.4-5.7 6.8-5.9s6.4 2 7.3 5.2l32.7 111.3 17.8-72.3c0.8-3.1 3.5-5.4 6.7-5.5 3.2-0.2 6.1 1.8 7.2 4.9l13.9 39.5 25.6-78.1c1-3 3.9-5.1 7.1-5s6 2.2 6.8 5.3l19.5 70.5h86.3c35.7-39.3 34.5-100.6-3.4-138.5zm-95.5 147.7l-14.6-52.6-24.8 75.6c-1 3-3.7 5-6.8 5h-0.1c-3.1 0-5.8-1.9-6.9-4.9l-12.9-36.7-18.4 74.7c-0.8 3.2-3.6 5.5-6.9 5.5h-0.2c-3.2 0-6.1-2.1-7-5.2l-31.7-108.4-8.9 46.4c-0.7 3.4-3.7 5.9-7.1 5.9h-83.6l15.2 15.2 142 142 142-142 15.2-15.2h-77.6c-3.2 0-6-2.2-6.9-5.3z" style="fill: rgb(218, 0, 37);"/></g>
</svg>